<svg xmlns="http://www.w3.org/2000/svg" xmlns:xlink="http://www.w3.org/1999/xlink" width="0" height="0" style="display:none;"><symbol viewBox="0 0 24 24" id="icon-align-left"><path d="M1,6H23a1,1,0,0,0,0-2H1A1,1,0,0,0,1,6Z M1,11H15a1,1,0,0,0,0-2H1a1,1,0,0,0,0,2Z M15,19H1a1,1,0,0,0,0,2H15a1,1,0,0,0,0-2Z M23,14H1a1,1,0,0,0,0,2H23a1,1,0,0,0,0-2Z" fill="var(--icon-color, currentColor)"></path></symbol><symbol viewBox="0 0 24 24" id="icon-align-right"><path d="M1,6H23a1,1,0,0,0,0-2H1A1,1,0,0,0,1,6Z M23,9H9a1,1,0,0,0,0,2H23a1,1,0,0,0,0-2Z M23,19H9a1,1,0,0,0,0,2H23a1,1,0,0,0,0-2Z M23,14H1a1,1,0,0,0,0,2H23a1,1,0,0,0,0-2Z" fill="var(--icon-color, currentColor)"></path></symbol><symbol viewBox="0 0 24 24" id="icon-code-simple"><path d="M9,22c-.249,0-.498-.093-.692-.278L1.187,14.894c-1.575-1.574-1.575-4.112-.015-5.672L8.303,2.283c.396-.385,1.029-.377,1.414,.02,.385,.396,.376,1.029-.02,1.414L2.576,10.646c-.77,.77-.77,2.04,.01,2.819l7.106,6.813c.399,.382,.412,1.016,.03,1.414-.196,.204-.459,.308-.722,.308Zm6.698-.284l7.112-6.94c1.559-1.56,1.559-4.098-.014-5.671L15.693,2.279c-.398-.382-1.031-.369-1.414,.028-.382,.398-.37,1.031,.028,1.414l7.089,6.811c.779,.78,.779,2.049,.009,2.82l-7.104,6.932c-.396,.386-.403,1.019-.018,1.414,.196,.201,.456,.302,.716,.302,.252,0,.504-.095,.698-.284Z" fill="var(--icon-color, currentColor)"></path></symbol><symbol viewBox="0 0 24 24" id="icon-message-code"><path d="M14.831,15c-.256,0-.512-.098-.707-.293-.391-.391-.391-1.023,0-1.414l2.583-2.583c.39-.391,.39-1.024,0-1.415l-2.583-2.583c-.391-.391-.391-1.023,0-1.414s1.023-.391,1.414,0l2.583,2.583c1.17,1.17,1.17,3.073,0,4.243l-2.583,2.583c-.195,.195-.451,.293-.707,.293Zm-4.954-.293c.391-.391,.391-1.023,0-1.414l-2.583-2.583c-.39-.391-.39-1.024,0-1.415l2.583-2.583c.391-.391,.391-1.023,0-1.414s-1.023-.391-1.414,0l-2.583,2.583c-1.17,1.17-1.17,3.073,0,4.243l2.583,2.583c.195,.195,.451,.293,.707,.293s.512-.098,.707-.293Zm3.425,8.473l3.847-3.18h2.852c2.206,0,4-1.794,4-4V4c0-2.206-1.794-4-4-4H4C1.794,0,0,1.794,0,4v12c0,2.206,1.794,4,4,4h2.923l3.748,3.156c.382,.34,.862,.509,1.338,.509,.467,0,.931-.163,1.292-.485ZM20,2c1.103,0,2,.897,2,2v12c0,1.103-.897,2-2,2h-3.211c-.232,0-.458,.081-.637,.229l-4.172,3.415-4.047-3.409c-.18-.152-.408-.235-.644-.235h-3.289c-1.103,0-2-.897-2-2V4c0-1.103,.897-2,2-2H20Z" fill="var(--icon-color, currentColor)"></path></symbol></svg>