<svg xmlns="http://www.w3.org/2000/svg" xmlns:xlink="http://www.w3.org/1999/xlink" width="0" height="0" style="display:none;"><symbol viewBox="0 0 24 24" id="icon-align-left"><path d="M1,6H23a1,1,0,0,0,0-2H1A1,1,0,0,0,1,6Z M1,11H15a1,1,0,0,0,0-2H1a1,1,0,0,0,0,2Z M15,19H1a1,1,0,0,0,0,2H15a1,1,0,0,0,0-2Z M23,14H1a1,1,0,0,0,0,2H23a1,1,0,0,0,0-2Z" fill="var(--icon-color, currentColor)"></path></symbol><symbol viewBox="0 0 24 24" id="icon-align-right"><path d="M1,6H23a1,1,0,0,0,0-2H1A1,1,0,0,0,1,6Z M23,9H9a1,1,0,0,0,0,2H23a1,1,0,0,0,0-2Z M23,19H9a1,1,0,0,0,0,2H23a1,1,0,0,0,0-2Z M23,14H1a1,1,0,0,0,0,2H23a1,1,0,0,0,0-2Z" fill="var(--icon-color, currentColor)"></path></symbol><symbol viewBox="0 0 24 24" id="icon-angle-down"><path d="M12,17.17a5,5,0,0,1-3.54-1.46L.29,7.54A1,1,0,0,1,1.71,6.12l8.17,8.17a3,3,0,0,0,4.24,0l8.17-8.17a1,1,0,1,1,1.42,1.42l-8.17,8.17A5,5,0,0,1,12,17.17Z" fill="var(--icon-color, currentColor)"></path></symbol><symbol viewBox="0 0 24 24" id="icon-code-simple"><path d="M9,22c-.249,0-.498-.093-.692-.278L1.187,14.894c-1.575-1.574-1.575-4.112-.015-5.672L8.303,2.283c.396-.385,1.029-.377,1.414,.02,.385,.396,.376,1.029-.02,1.414L2.576,10.646c-.77,.77-.77,2.04,.01,2.819l7.106,6.813c.399,.382,.412,1.016,.03,1.414-.196,.204-.459,.308-.722,.308Zm6.698-.284l7.112-6.94c1.559-1.56,1.559-4.098-.014-5.671L15.693,2.279c-.398-.382-1.031-.369-1.414,.028-.382,.398-.37,1.031,.028,1.414l7.089,6.811c.779,.78,.779,2.049,.009,2.82l-7.104,6.932c-.396,.386-.403,1.019-.018,1.414,.196,.201,.456,.302,.716,.302,.252,0,.504-.095,.698-.284Z" fill="var(--icon-color, currentColor)"></path></symbol><symbol viewBox="0 0 24 24" id="icon-columns"><path d="m19,2H5C2.243,2,0,4.243,0,7v10c0,2.757,2.243,5,5,5h14c2.757,0,5-2.243,5-5V7c0-2.757-2.243-5-5-5Zm-4,2v16h-6V4h6ZM2,17V7c0-1.654,1.346-3,3-3h2v16h-2c-1.654,0-3-1.346-3-3Zm20,0c0,1.654-1.346,3-3,3h-2V4h2c1.654,0,3,1.346,3,3v10Z" fill="var(--icon-color, currentColor)"></path></symbol><symbol viewBox="0 0 24 24" id="icon-cross"><path d="M23.707.293h0a1,1,0,0,0-1.414,0L12,10.586,1.707.293a1,1,0,0,0-1.414,0h0a1,1,0,0,0,0,1.414L10.586,12,.293,22.293a1,1,0,0,0,0,1.414h0a1,1,0,0,0,1.414,0L12,13.414,22.293,23.707a1,1,0,0,0,1.414,0h0a1,1,0,0,0,0-1.414L13.414,12,23.707,1.707A1,1,0,0,0,23.707.293Z" fill="var(--icon-color, currentColor)"></path></symbol><symbol viewBox="0 0 24 24" id="icon-message-code"><path d="M14.831,15c-.256,0-.512-.098-.707-.293-.391-.391-.391-1.023,0-1.414l2.583-2.583c.39-.391,.39-1.024,0-1.415l-2.583-2.583c-.391-.391-.391-1.023,0-1.414s1.023-.391,1.414,0l2.583,2.583c1.17,1.17,1.17,3.073,0,4.243l-2.583,2.583c-.195,.195-.451,.293-.707,.293Zm-4.954-.293c.391-.391,.391-1.023,0-1.414l-2.583-2.583c-.39-.391-.39-1.024,0-1.415l2.583-2.583c.391-.391,.391-1.023,0-1.414s-1.023-.391-1.414,0l-2.583,2.583c-1.17,1.17-1.17,3.073,0,4.243l2.583,2.583c.195,.195,.451,.293,.707,.293s.512-.098,.707-.293Zm3.425,8.473l3.847-3.18h2.852c2.206,0,4-1.794,4-4V4c0-2.206-1.794-4-4-4H4C1.794,0,0,1.794,0,4v12c0,2.206,1.794,4,4,4h2.923l3.748,3.156c.382,.34,.862,.509,1.338,.509,.467,0,.931-.163,1.292-.485ZM20,2c1.103,0,2,.897,2,2v12c0,1.103-.897,2-2,2h-3.211c-.232,0-.458,.081-.637,.229l-4.172,3.415-4.047-3.409c-.18-.152-.408-.235-.644-.235h-3.289c-1.103,0-2-.897-2-2V4c0-1.103,.897-2,2-2H20Z" fill="var(--icon-color, currentColor)"></path></symbol><symbol viewBox="0 0 468 512" id="icon-paragraph-ltr">

<path d="M298.688 256H213.355V320C213.355 331.797 203.819 341.333 192.021 341.333C180.224 341.333 170.688 331.797 170.688 320V42.6667H128.021V320C128.021 331.797 118.485 341.333 106.688 341.333C94.8907 341.333 85.3547 331.797 85.3547 320V42.6667H64.0213C52.224 42.6667 42.688 33.1307 42.688 21.3333C42.688 9.536 52.224 0 64.0213 0H298.688C369.28 0 426.688 57.408 426.688 128C426.688 198.592 369.28 256 298.688 256ZM298.688 42.6667H213.355V213.333H298.688C345.749 213.333 384.021 175.061 384.021 128C384.021 80.9387 345.749 42.6667 298.688 42.6667ZM0.0213216 405.333C0.0213216 417.131 9.55732 426.667 21.3547 426.667H412.757L366.571 476.096C358.549 484.715 359.019 498.219 367.616 506.261C371.733 510.101 376.96 512 382.187 512C387.904 512 393.579 509.739 397.781 505.237L449.28 450.069C473.728 425.621 473.728 385.045 448.768 360.085L397.781 305.429C389.717 296.811 376.235 296.363 367.616 304.384C359.019 312.427 358.549 325.931 366.571 334.549L412.715 383.979H21.3333C9.536 383.979 0 393.515 0 405.312L0.0213216 405.333Z" fill="var(--icon-color, currentColor)"></path></symbol><symbol viewBox="0 0 24 24" id="icon-paragraph-rtl"><path d="m9,12h4v3c0,.553.447,1,1,1s1-.447,1-1V2h2v13c0,.553.447,1,1,1s1-.447,1-1V2h1c.553,0,1-.447,1-1s-.447-1-1-1h-11C5.691,0,3,2.691,3,6s2.691,6,6,6Zm0-10h4v8h-4c-2.206,0-4-1.794-4-4s1.794-4,4-4Zm14,17c0,.553-.447,1-1,1H3.653l2.165,2.317c.376.404.354,1.037-.049,1.414-.193.18-.438.269-.683.269-.268,0-.534-.106-.731-.317l-2.414-2.586c-1.146-1.146-1.146-3.048.024-4.218l2.39-2.562c.378-.404,1.01-.425,1.414-.049.403.377.425,1.01.049,1.414l-2.163,2.317h18.346c.553,0,1,.447,1,1Z" fill="var(--icon-color, currentColor)"></path></symbol><symbol viewBox="0 0 24 24" id="icon-white-space">
  
<path d="M24,1V23c0,.553-.447,1-1,1s-1-.447-1-1V12.012c-.009,.501-.201,1-.583,1.382l-3.199,3.302c-.195,.203-.457,.305-.718,.305-.251,0-.502-.094-.695-.282-.397-.384-.407-1.017-.022-1.413l2.232-2.305H4.995l2.223,2.305c.385,.396,.375,1.029-.022,1.413-.193,.188-.444,.282-.695,.282-.261,0-.522-.102-.718-.305l-3.21-3.313c-.375-.374-.564-.868-.572-1.366v10.984c0,.553-.447,1-1,1s-1-.447-1-1V1C0,.447,.447,0,1,0s1,.447,1,1V11.942c.01-.499,.202-.996,.583-1.376l3.203-3.266c.386-.394,1.021-.401,1.414-.014,.395,.387,.4,1.02,.014,1.414l-2.256,2.3h14.069l-2.241-2.3c-.387-.395-.381-1.027,.014-1.414,.393-.388,1.026-.38,1.414,.014l3.21,3.272c.378,.378,.569,.875,.576,1.376V1c0-.553,.447-1,1-1s1,.447,1,1Z" fill="var(--icon-color, currentColor)"></path></symbol></svg>