<svg xmlns="http://www.w3.org/2000/svg" xmlns:xlink="http://www.w3.org/1999/xlink" width="0" height="0" style="display:none;"><symbol viewBox="0 0 30 30" id="icon-arrow-left">

<path d="M21.9999 9.71447e-08C22.2777 7.28607e-08 22.5554 0.111038 22.7777 0.333296C23.2222 0.777811 23.2222 1.4444 22.7777 1.88893L9.66667 15L22.7777 28.111C23.2222 28.5555 23.2222 29.2221 22.7777 29.6666C22.3332 30.1111 21.6666 30.1111 21.2221 29.6666L7.33326 15.7778C7.111 15.5556 6.99997 15.2778 6.99997 15C6.99997 14.7222 7.111 14.4444 7.33326 14.2222L21.2221 0.333386C21.4443 0.111128 21.7221 9.35815e-05 21.9999 9.35572e-05L21.9999 9.71447e-08Z" fill="var(--icon-color, currentColor)"></path></symbol><symbol viewBox="0 0 30 30" id="icon-arrow-right">

<path d="M8.11121 30C7.83343 30 7.55565 29.889 7.33339 29.6667C6.88887 29.2222 6.88887 28.5556 7.33339 28.1111L20.4444 15L7.33339 1.88902C6.88887 1.44451 6.88887 0.777921 7.33339 0.333387C7.7779 -0.111129 8.44449 -0.111129 8.88902 0.333387L22.7778 14.2222C23.0001 14.4444 23.1111 14.7222 23.1111 15C23.1111 15.2778 23.0001 15.5556 22.7778 15.7778L8.88902 29.6666C8.66677 29.8889 8.38898 29.9999 8.11121 29.9999V30Z" fill="var(--icon-color, currentColor)"></path></symbol></svg>