<svg width="30" height="30" viewBox="0 0 30 30" fill="none" xmlns="http://www.w3.org/2000/svg">
<path d="M21.9999 9.71447e-08C22.2777 7.28607e-08 22.5554 0.111038 22.7777 0.333296C23.2222 0.777811 23.2222 1.4444 22.7777 1.88893L9.66667 15L22.7777 28.111C23.2222 28.5555 23.2222 29.2221 22.7777 29.6666C22.3332 30.1111 21.6666 30.1111 21.2221 29.6666L7.33326 15.7778C7.111 15.5556 6.99997 15.2778 6.99997 15C6.99997 14.7222 7.111 14.4444 7.33326 14.2222L21.2221 0.333386C21.4443 0.111128 21.7221 9.35815e-05 21.9999 9.35572e-05L21.9999 9.71447e-08Z" fill="black"/>
</svg>
